<?xml version="1.0" encoding="utf-8"?>
<!-- Generator: Adobe Illustrator 23.0.3, SVG Export Plug-In . SVG Version: 6.00 Build 0)  -->
<svg version="1.1" id="Layer_1" xmlns="http://www.w3.org/2000/svg" xmlns:xlink="http://www.w3.org/1999/xlink" x="0px" y="0px"
	 viewBox="0 0 50 50" style="enable-background:new 0 0 50 50;" xml:space="preserve">
<style type="text/css">
	.st0{fill:none;stroke:#0C0C0C;stroke-width:1.5;stroke-linecap:round;stroke-linejoin:round;stroke-miterlimit:10;}
	.st1{fill:#0C0C0C;}
	.st2{fill:url(#SVGID_1_);}
	.st3{fill:url(#SVGID_2_);}
	.st4{fill:url(#SVGID_3_);}
	.st5{fill:url(#SVGID_4_);}
	.st6{fill:url(#SVGID_5_);}
	.st7{fill:url(#SVGID_6_);}
	.st8{fill:url(#SVGID_7_);}
	.st9{fill:url(#SVGID_8_);}
	.st10{fill:url(#SVGID_9_);}
	.st11{fill:url(#SVGID_10_);}
	.st12{fill:url(#SVGID_11_);}
	.st13{fill:url(#SVGID_12_);}
	.st14{fill:url(#SVGID_13_);}
	.st15{fill:url(#SVGID_14_);}
	.st16{fill:url(#SVGID_15_);}
	.st17{fill:#DB2427;}
	.st18{fill:url(#SVGID_16_);}
	.st19{fill:url(#SVGID_17_);}
</style>
<g>
	<g>
		<path d="M45.5,23.5c-1.1,0-2,0.7-2.3,1.7h-2c-0.1-2.2-0.7-4.3-1.7-6.2l1.7-1c0.4,0.4,1,0.6,1.6,0.6c0.4,0,0.8-0.1,1.2-0.3
			c0.6-0.3,1-0.9,1.1-1.5c0.2-0.6,0.1-1.3-0.3-1.8c-0.3-0.6-0.9-1-1.5-1.1c-0.6-0.2-1.3-0.1-1.8,0.3c-0.9,0.5-1.4,1.6-1.1,2.6
			l-1.7,1c-1.1-1.7-2.6-3.2-4.4-4.4l1-1.7c0.2,0,0.3,0.1,0.5,0.1c0.2,0,0.4,0,0.6-0.1c0.6-0.2,1.2-0.6,1.5-1.1
			c0.3-0.6,0.4-1.2,0.3-1.8s-0.6-1.2-1.1-1.5c-0.6-0.3-1.2-0.4-1.8-0.3c-0.6,0.2-1.2,0.6-1.5,1.1c-0.5,0.9-0.4,2.1,0.3,2.8l-1,1.7
			c-1.9-1-4-1.6-6.2-1.7v-2c1-0.3,1.7-1.2,1.7-2.3c0-1.3-1.1-2.4-2.4-2.4s-2.4,1.1-2.4,2.4c0,1.1,0.7,2,1.7,2.3v2
			c-2.2,0.1-4.3,0.7-6.2,1.7l-1-1.7c0.3-0.3,0.4-0.6,0.5-1c0.2-0.6,0.1-1.3-0.3-1.8c-0.3-0.6-0.9-1-1.5-1.1
			c-0.6-0.2-1.3-0.1-1.8,0.3c-0.6,0.3-1,0.9-1.1,1.5c-0.2,0.6-0.1,1.3,0.3,1.8c0.3,0.6,0.9,1,1.5,1.1c0.2,0.1,0.4,0.1,0.6,0.1
			c0.2,0,0.3,0,0.5-0.1l1,1.7c-1.7,1.1-3.2,2.6-4.4,4.4l-1.7-1c0.1-0.4,0.1-0.8,0-1.1c-0.2-0.6-0.6-1.2-1.1-1.5
			c-0.6-0.3-1.2-0.4-1.8-0.3c-0.6,0.2-1.2,0.6-1.5,1.1c-0.3,0.6-0.4,1.2-0.3,1.8c0.2,0.6,0.6,1.2,1.1,1.5c0.4,0.2,0.8,0.3,1.2,0.3
			c0.2,0,0.4,0,0.6-0.1c0.4-0.1,0.7-0.3,1-0.5l1.7,1c-1,1.9-1.6,4-1.7,6.2h-2c-0.3-1-1.2-1.7-2.3-1.7c-1.3,0-2.4,1.1-2.4,2.4
			s1.1,2.4,2.4,2.4c1.1,0,2-0.7,2.3-1.7h2c0.1,2.2,0.7,4.3,1.7,6.2l-1.7,1c-0.3-0.3-0.6-0.4-1-0.5c-0.6-0.2-1.3-0.1-1.8,0.3
			c-0.6,0.3-1,0.9-1.1,1.5c-0.2,0.6-0.1,1.3,0.3,1.8c0.4,0.8,1.3,1.2,2.1,1.2c0.4,0,0.8-0.1,1.2-0.3c0.9-0.5,1.4-1.6,1.1-2.6l1.7-1
			c1.1,1.7,2.6,3.2,4.4,4.4l-1,1.7c-1-0.2-2.1,0.2-2.6,1.1h0c-0.7,1.2-0.3,2.6,0.9,3.3c0.4,0.2,0.8,0.3,1.2,0.3c0.2,0,0.4,0,0.6-0.1
			c0.6-0.2,1.2-0.6,1.5-1.1c0.3-0.6,0.4-1.2,0.3-1.8c-0.1-0.4-0.3-0.7-0.5-1l1-1.7c1.9,1,4,1.6,6.2,1.7v2c-1,0.3-1.7,1.2-1.7,2.3
			c0,1.3,1.1,2.4,2.4,2.4s2.4-1.1,2.4-2.4c0-1.1-0.7-2-1.7-2.3v-2c2.2-0.1,4.3-0.7,6.2-1.7l1,1.7c-0.3,0.3-0.4,0.6-0.5,1
			c-0.2,0.6-0.1,1.3,0.2,1.8h0c0.5,0.8,1.3,1.2,2.1,1.2c0.4,0,0.8-0.1,1.2-0.3c1.2-0.7,1.5-2.2,0.9-3.3c-0.5-0.9-1.6-1.4-2.6-1.1
			l-1-1.7c1.7-1.1,3.2-2.6,4.4-4.4l1.7,1c-0.2,1,0.2,2.1,1.1,2.6c0.4,0.2,0.8,0.3,1.2,0.3c0.8,0,1.6-0.4,2.1-1.2
			c0.7-1.2,0.3-2.6-0.9-3.3c-0.9-0.5-2.1-0.4-2.8,0.3l-1.7-1c1-1.9,1.6-4,1.7-6.2h2c0.3,1,1.2,1.7,2.3,1.7c1.3,0,2.4-1.1,2.4-2.4
			S46.8,23.5,45.5,23.5z M42.4,15.4c0.1-0.1,0.3-0.1,0.5-0.1c0.1,0,0.2,0,0.2,0c0.2,0.1,0.4,0.2,0.6,0.4c0.1,0.2,0.2,0.5,0.1,0.7
			c-0.1,0.2-0.2,0.4-0.4,0.6c-0.4,0.3-1,0.1-1.3-0.3C41.8,16.2,42,15.7,42.4,15.4z M35.1,8.8c0.1-0.2,0.3-0.4,0.6-0.4
			c0.1,0,0.2,0,0.2,0c0.2,0,0.3,0,0.5,0.1c0.2,0.1,0.4,0.3,0.4,0.6c0.1,0.2,0,0.5-0.1,0.7c0,0,0,0,0,0c-0.1,0.2-0.3,0.4-0.6,0.4
			c-0.2,0.1-0.5,0-0.7-0.1C35,9.8,34.9,9.2,35.1,8.8z M16.2,10.1c-0.2-0.1-0.4-0.2-0.6-0.4c-0.1-0.2-0.2-0.5-0.1-0.7
			c0.1-0.2,0.2-0.4,0.4-0.6c0.1-0.1,0.3-0.1,0.5-0.1c0.1,0,0.2,0,0.2,0c0.2,0.1,0.4,0.2,0.6,0.4c0.1,0.2,0.2,0.5,0.1,0.7
			c-0.1,0.2-0.2,0.4-0.4,0.6C16.6,10.1,16.4,10.2,16.2,10.1z M10.3,16.6C10.1,16.8,9.9,17,9.7,17c-0.2,0.1-0.5,0-0.7-0.1
			c-0.2-0.1-0.4-0.3-0.4-0.6c-0.1-0.2,0-0.5,0.1-0.7c0.1-0.2,0.3-0.4,0.6-0.4c0.1,0,0.2,0,0.2,0c0.2,0,0.3,0,0.5,0.1
			c0.2,0.1,0.4,0.3,0.4,0.6C10.4,16.1,10.4,16.4,10.3,16.6z M9.9,36.5c-0.4,0.3-1,0.1-1.3-0.3c-0.1-0.2-0.2-0.5-0.1-0.7
			S8.7,35,9,34.9l0,0c0.1-0.1,0.3-0.1,0.5-0.1c0.1,0,0.2,0,0.2,0c0.2,0.1,0.4,0.2,0.6,0.4C10.5,35.7,10.3,36.2,9.9,36.5z M17.1,43.1
			c-0.1,0.2-0.3,0.4-0.6,0.4c-0.2,0.1-0.5,0-0.7-0.1c-0.4-0.3-0.6-0.8-0.3-1.3c0.3-0.4,0.8-0.6,1.3-0.3c0.2,0.1,0.4,0.3,0.4,0.6
			C17.3,42.6,17.3,42.9,17.1,43.1z M36.7,42.2c0.3,0.4,0.1,1-0.3,1.3c-0.4,0.3-1,0.1-1.3-0.3c-0.3-0.4-0.1-1,0.3-1.3
			C35.9,41.6,36.4,41.8,36.7,42.2z M42,35.3c0.3-0.4,0.8-0.6,1.3-0.3c0.4,0.3,0.6,0.8,0.3,1.3c-0.3,0.4-0.8,0.6-1.3,0.3
			C41.9,36.3,41.8,35.7,42,35.3z M26.1,5.7c0.5,0,0.9,0.4,0.9,0.9c0,0.5-0.4,0.9-0.9,0.9c-0.5,0-0.9-0.4-0.9-0.9
			C25.2,6.1,25.6,5.7,26.1,5.7z M6.8,26.9c-0.5,0-0.9-0.4-0.9-0.9S6.3,25,6.8,25c0.5,0,0.9,0.4,0.9,0.9S7.3,26.9,6.8,26.9z
			 M26.1,46.2c-0.5,0-0.9-0.4-0.9-0.9s0.4-0.9,0.9-0.9c0.5,0,0.9,0.4,0.9,0.9S26.7,46.2,26.1,46.2z M26.1,39.5
			c-7.5,0-13.6-6.1-13.6-13.6s6.1-13.6,13.6-13.6s13.6,6.1,13.6,13.6S33.6,39.5,26.1,39.5z M45.5,26.9c-0.5,0-0.9-0.4-0.9-0.9
			S45,25,45.5,25s0.9,0.4,0.9,0.9S46,26.9,45.5,26.9z"/>
		<path d="M19.6,23.5c-0.1,0-0.2,0-0.3,0.1s-0.1,0.2-0.1,0.3c-0.1,0.2-0.2,0.4-0.4,0.5c-0.2,0.1-0.4,0.2-0.6,0.2
			c-0.2,0-0.4-0.1-0.6-0.2s-0.3-0.3-0.4-0.5c-0.1-0.2-0.1-0.5-0.1-0.8c0-0.5,0.1-0.9,0.3-1.2s0.5-0.4,0.9-0.4c0.2,0,0.4,0.1,0.6,0.2
			c0.2,0.1,0.3,0.3,0.4,0.5c0.1,0.1,0.1,0.2,0.2,0.3c0.1,0.1,0.1,0.1,0.3,0.1c0.1,0,0.2,0,0.3-0.1s0.1-0.2,0.1-0.3
			c0-0.2-0.1-0.4-0.2-0.6c-0.1-0.2-0.4-0.4-0.6-0.5s-0.6-0.2-0.9-0.2c-0.3,0-0.6,0.1-0.8,0.2s-0.5,0.3-0.7,0.4s-0.3,0.4-0.4,0.7
			s-0.2,0.6-0.2,0.9c0,0.2,0,0.4,0.1,0.6c0,0.2,0.1,0.4,0.2,0.5c0.1,0.2,0.2,0.3,0.3,0.5c0.1,0.1,0.3,0.3,0.4,0.4
			c0.2,0.1,0.3,0.2,0.5,0.2s0.4,0.1,0.6,0.1c0.3,0,0.6,0,0.8-0.1s0.4-0.2,0.6-0.4s0.3-0.3,0.3-0.5c0.1-0.2,0.1-0.3,0.1-0.4
			c0-0.1,0-0.2-0.1-0.3S19.7,23.5,19.6,23.5z"/>
		<path d="M23.8,21.1c-0.3-0.2-0.7-0.3-1.1-0.3c-0.3,0-0.6,0.1-0.9,0.2c-0.3,0.1-0.5,0.3-0.7,0.4s-0.3,0.4-0.4,0.7
			c-0.1,0.3-0.1,0.6-0.1,0.9c0,0.3,0,0.6,0.1,0.9c0.1,0.3,0.2,0.5,0.4,0.7s0.4,0.4,0.7,0.5c0.3,0.1,0.6,0.2,0.9,0.2
			c0.3,0,0.6-0.1,0.9-0.2s0.5-0.3,0.7-0.5s0.3-0.4,0.4-0.7s0.1-0.6,0.1-0.9c0-0.4-0.1-0.8-0.2-1.2S24.1,21.3,23.8,21.1z M23.7,23.9
			c-0.1,0.2-0.3,0.4-0.4,0.5c-0.2,0.1-0.4,0.2-0.6,0.2c-0.2,0-0.3,0-0.5-0.1s-0.3-0.2-0.4-0.3s-0.2-0.3-0.3-0.5
			c-0.1-0.2-0.1-0.4-0.1-0.7c0-0.2,0-0.5,0.1-0.7c0.1-0.2,0.1-0.4,0.3-0.5c0.1-0.1,0.2-0.2,0.4-0.3c0.1-0.1,0.3-0.1,0.5-0.1
			c0.2,0,0.5,0.1,0.6,0.2c0.2,0.1,0.3,0.3,0.4,0.5s0.2,0.5,0.2,0.8C23.9,23.4,23.8,23.7,23.7,23.9z"/>
		<path d="M26.3,24.8c0,0.1,0.1,0.2,0.1,0.3c0.1,0.1,0.1,0.1,0.2,0.2c0.1,0,0.2,0.1,0.3,0.1s0.2,0,0.3-0.1s0.1-0.1,0.2-0.2
			c0-0.1,0.1-0.2,0.1-0.3c0-0.1,0.1-0.2,0.1-0.3l1-2.8c0-0.1,0-0.1,0.1-0.1c0,0,0-0.1,0-0.1c0,0,0-0.1,0-0.1c0-0.1,0-0.1-0.1-0.2
			c0-0.1-0.1-0.1-0.1-0.1c-0.1,0-0.1-0.1-0.2-0.1c-0.1,0-0.2,0-0.2,0.1c-0.1,0-0.1,0.1-0.1,0.2s-0.1,0.2-0.1,0.3l-1,2.9l-1-2.9
			c-0.1-0.2-0.1-0.3-0.2-0.4c-0.1-0.1-0.2-0.1-0.3-0.1c-0.1,0-0.2,0-0.3,0.1s-0.1,0.2-0.1,0.3c0,0,0,0.1,0,0.1s0,0.1,0,0.2
			s0,0.1,0.1,0.1l1,2.8C26.2,24.6,26.3,24.7,26.3,24.8z"/>
		<path d="M29.9,20.8c-0.1,0-0.2,0-0.3,0.1s-0.1,0.2-0.1,0.4v3.4c0,0.2,0,0.3,0.1,0.4c0.1,0.1,0.2,0.1,0.3,0.1c0.1,0,0.2,0,0.3-0.1
			s0.1-0.2,0.1-0.4v-3.4c0-0.2,0-0.3-0.1-0.4C30.2,20.9,30.1,20.8,29.9,20.8z"/>
		<path d="M33.8,21c-0.2-0.1-0.5-0.1-0.8-0.1h-1.1c-0.2,0-0.3,0-0.4,0.1s-0.1,0.2-0.1,0.4v3.1c0,0.1,0,0.3,0,0.3
			c0,0.1,0.1,0.2,0.2,0.2c0.1,0,0.2,0.1,0.4,0.1H33c0.2,0,0.4,0,0.5,0c0.2,0,0.3-0.1,0.4-0.1s0.3-0.1,0.4-0.2
			c0.1-0.1,0.3-0.3,0.4-0.5s0.2-0.4,0.2-0.6S35,23.3,35,23c0-0.8-0.2-1.4-0.7-1.7C34.2,21.1,34,21,33.8,21z M33.7,24.3
			c-0.1,0.1-0.1,0.1-0.2,0.1s-0.2,0.1-0.3,0.1s-0.2,0-0.3,0h-0.7v-2.9h0.6c0.3,0,0.5,0,0.7,0.1s0.3,0.2,0.5,0.4
			c0.1,0.2,0.2,0.5,0.2,1C34.2,23.6,34,24,33.7,24.3z"/>
		<path d="M24.2,27.9c-0.1,0-0.2,0-0.2,0.1s-0.1,0.1-0.2,0.3s-0.2,0.3-0.4,0.4s-0.3,0.2-0.6,0.4c-0.2,0.1-0.3,0.1-0.3,0.2
			s-0.1,0.1-0.1,0.2c0,0.1,0,0.2,0.1,0.2s0.1,0.1,0.2,0.1c0.2,0,0.5-0.2,1-0.6v2.7c0,0.2,0,0.3,0.1,0.4s0.2,0.1,0.3,0.1
			c0.3,0,0.4-0.2,0.4-0.6v-3.4c0-0.1,0-0.3-0.1-0.3S24.3,27.9,24.2,27.9z"/>
		<path d="M28.4,28.4c-0.1-0.2-0.3-0.3-0.5-0.4s-0.4-0.1-0.7-0.1c-0.2,0-0.4,0-0.6,0.1c-0.2,0.1-0.3,0.2-0.5,0.3s-0.2,0.3-0.3,0.5
			c-0.1,0.2-0.1,0.4-0.1,0.6c0,0.2,0,0.4,0.1,0.5s0.2,0.3,0.3,0.4c0.1,0.1,0.3,0.2,0.4,0.3c0.2,0.1,0.3,0.1,0.5,0.1
			c0.2,0,0.4,0,0.5-0.1c0.2-0.1,0.3-0.2,0.4-0.3c0,0.5-0.1,0.9-0.3,1.1c-0.1,0.1-0.2,0.2-0.3,0.2s-0.2,0.1-0.3,0.1
			c-0.1,0-0.2,0-0.3-0.1c-0.1-0.1-0.2-0.2-0.2-0.3c0-0.1-0.1-0.2-0.2-0.2c-0.1,0-0.1-0.1-0.2-0.1c-0.1,0-0.2,0-0.2,0.1
			s-0.1,0.1-0.1,0.2c0,0.1,0,0.3,0.1,0.4c0.1,0.1,0.2,0.3,0.4,0.4c0.2,0.1,0.4,0.1,0.7,0.1c0.3,0,0.5,0,0.7-0.1
			c0.2-0.1,0.4-0.2,0.5-0.4s0.3-0.4,0.3-0.7s0.1-0.6,0.1-1c0-0.3,0-0.6-0.1-0.9S28.6,28.6,28.4,28.4z M27.9,29.8
			c-0.1,0.1-0.2,0.2-0.3,0.3c-0.1,0.1-0.2,0.1-0.3,0.1c-0.2,0-0.4-0.1-0.5-0.2s-0.2-0.4-0.2-0.6c0-0.3,0.1-0.5,0.2-0.6
			c0.1-0.2,0.3-0.2,0.5-0.2c0.1,0,0.2,0,0.3,0.1c0.1,0,0.2,0.1,0.2,0.2c0.1,0.1,0.1,0.2,0.2,0.3c0,0.1,0.1,0.2,0.1,0.4
			C28,29.5,27.9,29.7,27.9,29.8z"/>
	</g>
</g>
</svg>
