<?xml version="1.0" encoding="UTF-8" standalone="no"?> <svg height="512" viewBox="0 0 512 512" width="512" xmlns="http://www.w3.org/2000/svg"><g id="Outline"><path d="m152 42.147h16v16.093h-16z" transform="matrix(.107 -.994 .994 .107 92.902 203.873)"/><path d="m357.054 108.042a212.673 212.673 0 0 1 68.938 85.341l14.621-6.5a228.417 228.417 0 0 0 -184.174-134.312l-71.579-7.737-1.72 15.908 71.579 7.737a212.733 212.733 0 0 1 102.335 39.563z"/><path d="m491.579 272.845-26.152-13.081a110.172 110.172 0 0 1 -51.3-53.678l-2.752-6.205a197.015 197.015 0 0 0 -158.375-115.495l-130.541-14.11a48.406 48.406 0 0 0 -52.17 59.864l21.122 84.5a2.177 2.177 0 0 1 -2.92 2.545l-61.52-24.61a8 8 0 0 0 -10.971 7.425v144a8 8 0 0 0 12.117 6.86l57.888-34.739a2.184 2.184 0 0 1 3.223 2.471l-14.149 49.527a57.98 57.98 0 0 0 79.3 68.912l85.566-38.031a34.707 34.707 0 0 0 16.673 4.3 35.273 35.273 0 0 0 10.33-1.556 34.827 34.827 0 0 0 22.488-21.028l1.7-4.47 200.11-88.938a8 8 0 0 0 .33-14.466zm-459.579 57.024v-118.053l48 19.2v15.224l-30.431-6.087-3.138 15.69 33.569 6.715v10.884l-33.569 6.713 3.138 15.69 30.431-6.087v11.512a18.484 18.484 0 0 0 -2.227 1.13zm257.1 6.809-14.615 38.342a19.05 19.05 0 0 1 -28.747 8.8l-10.783-7.573 41.4-50.262-12.35-10.173-46.893 56.93a8 8 0 0 0 1.577 11.633l5.723 4.019-37.183 16.525c-1.4-5.727-3.037-10.648-4.641-15.458-3.902-11.705-7.588-22.761-7.588-45.461s3.686-33.761 7.589-45.47c4.135-12.406 8.411-25.236 8.411-50.54s-4.275-38.12-8.41-50.525c-.881-2.644-1.713-5.141-2.513-7.784l-15.314 4.638c.865 2.854 1.772 5.575 2.648 8.205 3.9 11.709 7.589 22.769 7.589 45.466s-3.687 33.77-7.59 45.481c-4.135 12.405-8.41 25.229-8.41 50.529s4.275 38.12 8.41 50.523a154.247 154.247 0 0 1 4.926 17.018l-24.455 10.869a41.983 41.983 0 0 1 -57.419-49.892l14.152-49.536a18.092 18.092 0 0 0 -6.426-19.42 18.558 18.558 0 0 0 -2.188-1.438v-70.061a18.2 18.2 0 0 0 10.931-21.313l-21.12-84.491a32.4 32.4 0 0 1 34.929-40.075l49.806 5.383c-.973 3.405-2.037 6.619-3.14 9.927-.875 2.625-1.78 5.339-2.642 8.186l15.312 4.64c.8-2.636 1.63-5.129 2.509-7.767 1.388-4.164 2.8-8.439 4.072-13.245l29.395 3.178c-.531 1.656-1.08 3.3-1.64 4.984-4.136 12.406-8.412 25.236-8.412 50.53s4.275 38.117 8.41 50.52c3.9 11.708 7.59 22.768 7.59 45.47s-3.687 33.77-7.59 45.481c-4.135 12.405-8.41 25.229-8.41 50.529 0 2.75.056 5.548.167 8.319l15.987-.638c-.1-2.558-.154-5.143-.154-7.681 0-22.7 3.686-33.761 7.589-45.47 4.135-12.406 8.411-25.236 8.411-50.54s-4.276-38.126-8.411-50.531c-3.903-11.706-7.589-22.759-7.589-45.459s3.688-33.759 7.591-45.47c.891-2.673 1.8-5.4 2.672-8.292l19.017 2.055a179.442 179.442 0 0 1 46.055 11.293c-.619 1.96-1.262 3.9-1.924 5.883-4.135 12.406-8.411 25.231-8.411 50.531s4.275 38.117 8.41 50.52c3.9 11.708 7.59 22.767 7.59 45.47s-3.685 33.764-7.585 45.471c-.878 2.636-1.786 5.361-2.652 8.222l15.314 4.634c.8-2.648 1.635-5.15 2.518-7.8 4.132-12.4 8.4-25.228 8.4-50.529s-4.276-38.126-8.411-50.531c-3.898-11.704-7.584-22.757-7.584-45.457s3.687-33.762 7.59-45.472q.722-2.163 1.449-4.407a181.6 181.6 0 0 1 26.425 16.079c-1.815 7.765-3.464 18.362-3.464 33.8 0 25.292 4.275 38.117 8.41 50.52 3.9 11.708 7.59 22.768 7.59 45.47s-3.687 33.769-7.59 45.481c-2.762 8.285-5.6 16.832-7.176 29.227l-37.058 16.47 4.877-12.791zm64.707-5.792a158.776 158.776 0 0 1 4.779-16.356c4.135-12.407 8.411-25.237 8.411-50.54s-4.276-38.126-8.411-50.531c-3.9-11.706-7.586-22.759-7.586-45.459a145.276 145.276 0 0 1 1.531-22.363 179.919 179.919 0 0 1 44.216 60.737l2.753 6.205a126.207 126.207 0 0 0 58.771 61.5l10.992 5.5z"/><path d="m384 248h16v16h-16z"/><path d="m160 120a32 32 0 1 0 32 32 32.036 32.036 0 0 0 -32-32zm0 48a16 16 0 1 1 16-16 16.019 16.019 0 0 1 -16 16z"/></g></svg>